<svg width="481" height="249" viewBox="0 0 481 249" fill="none" xmlns="http://www.w3.org/2000/svg">
<path d="M240.5 215.561C373.324 215.561 481 212.544 481 208.821C481 205.099 373.324 202.081 240.5 202.081C107.676 202.081 0 205.099 0 208.821C0 212.544 107.676 215.561 240.5 215.561Z" fill="#F86262"/>
<path d="M368.669 133.789C368.366 133.793 368.062 133.797 367.754 133.797C367.446 133.797 367.143 133.793 366.839 133.789C350.74 133.422 339.071 123.344 342.041 112.771L349.284 86.9759L351.114 80.449L383.562 81.0033L385.534 87.3885L393.296 112.521C396.583 123.153 384.914 133.422 368.669 133.789Z" fill="black"/>
<path d="M384.165 113.627C385.566 108.393 390.173 100.842 403.093 91.7392C425.625 75.8607 412.184 63.9549 411.601 63.456C410.379 62.4097 410.56 61.2348 412.021 60.8334C412.869 60.6634 413.745 60.6771 414.587 60.8737C415.43 61.0703 416.222 61.4451 416.908 61.9731C417.638 62.5777 434.469 76.9783 409.044 94.8932C386.161 111.019 391.027 121.545 391.082 121.646C391.696 122.771 390.712 123.672 388.884 123.66C387.056 123.648 385.076 122.726 384.461 121.602C384.332 121.364 382.859 118.499 384.165 113.627Z" fill="black"/>
<path d="M352.779 137.548C352.287 137.549 351.8 137.451 351.346 137.263C350.892 137.074 350.479 136.798 350.131 136.45C349.784 136.102 349.508 135.688 349.32 135.233C349.131 134.778 349.035 134.29 349.035 133.797V117.543C349.035 116.548 349.429 115.594 350.131 114.89C350.833 114.187 351.786 113.792 352.779 113.792C353.772 113.792 354.724 114.187 355.426 114.89C356.128 115.594 356.523 116.548 356.523 117.543V133.797C356.523 134.29 356.426 134.778 356.238 135.233C356.049 135.688 355.774 136.102 355.426 136.45C355.078 136.798 354.666 137.074 354.211 137.263C353.757 137.451 353.27 137.549 352.779 137.548Z" fill="black"/>
<path d="M356.061 98.9593C355.856 99.4069 355.564 99.8094 355.203 100.144C354.843 100.479 354.419 100.739 353.958 100.91C353.497 101.081 353.007 101.159 352.516 101.14C352.024 101.121 351.542 101.005 351.095 100.799L336.356 94.0052C335.455 93.5887 334.756 92.8309 334.412 91.8983C334.069 90.9657 334.109 89.9345 334.523 89.0314C334.938 88.1282 335.694 87.427 336.624 87.0817C337.555 86.7364 338.584 86.7753 339.486 87.1899L354.225 93.9838C354.671 94.1897 355.073 94.4817 355.407 94.8432C355.741 95.2046 356.001 95.6285 356.171 96.0905C356.342 96.5525 356.42 97.0437 356.401 97.5359C356.382 98.0282 356.267 98.5118 356.061 98.9593Z" fill="black"/>
<path d="M379.448 98.9593C379.653 99.4068 379.945 99.8094 380.305 100.144C380.666 100.479 381.089 100.739 381.55 100.91C382.012 101.081 382.502 101.159 382.993 101.14C383.484 101.121 383.967 101.005 384.414 100.799L399.153 94.0052C400.055 93.5894 400.755 92.8316 401.099 91.8985C401.444 90.9654 401.404 89.9335 400.989 89.0297C400.574 88.1259 399.818 87.4243 398.886 87.0793C397.955 86.7343 396.925 86.774 396.023 87.1898L381.284 93.9838C380.837 94.1897 380.436 94.4817 380.102 94.8432C379.768 95.2046 379.508 95.6285 379.337 96.0905C379.167 96.5525 379.089 97.0437 379.108 97.5359C379.127 98.0281 379.242 98.5118 379.448 98.9593Z" fill="black"/>
<path opacity="0.2" d="M385.534 87.3885C380.002 90.557 373.725 92.1892 367.353 92.1167C360.981 92.0441 354.743 90.2695 349.284 86.9759L351.115 80.449L383.562 81.0033L385.534 87.3885Z" fill="black"/>
<path d="M382.73 137.548C383.222 137.549 383.709 137.451 384.163 137.263C384.617 137.074 385.03 136.798 385.378 136.45C385.725 136.102 386.001 135.688 386.189 135.233C386.377 134.778 386.474 134.29 386.474 133.797V117.543C386.474 116.548 386.08 115.594 385.378 114.89C384.676 114.187 383.723 113.792 382.73 113.792C381.737 113.792 380.785 114.187 380.083 114.89C379.381 115.594 378.986 116.548 378.986 117.543V133.797C378.986 134.29 379.083 134.778 379.271 135.233C379.459 135.688 379.735 136.102 380.083 136.45C380.431 136.798 380.843 137.074 381.298 137.263C381.752 137.451 382.239 137.549 382.73 137.548Z" fill="black"/>
<path d="M398.377 32.3165C398.7 31.9082 398.934 31.4358 399.062 30.9305C399.19 30.4252 399.21 29.8984 399.12 29.3849L397.082 17.3751L395.044 5.36517C394.934 4.71672 394.656 4.10871 394.237 3.60225C393.818 3.09579 393.274 2.70873 392.658 2.47997C392.043 2.2512 391.378 2.1888 390.731 2.29903C390.083 2.40925 389.476 2.68823 388.971 3.10792L379.609 10.8809L373.968 15.5638C370.206 14.8936 366.361 14.8355 362.581 15.3918L357.148 10.8809L347.786 3.10792C347.28 2.68823 346.673 2.40926 346.026 2.29903C345.379 2.18881 344.714 2.25121 344.099 2.47997C343.483 2.70874 342.938 3.0958 342.519 3.60226C342.101 4.10872 341.822 4.71673 341.712 5.36518L339.674 17.3751L337.637 29.3849C337.528 30.0161 337.584 30.6648 337.8 31.2678C334.308 36.6313 332.314 42.8343 332.026 49.2315C331.737 55.6287 333.165 61.9865 336.161 67.6434C339.156 73.3004 343.61 78.0499 349.058 81.3979C354.507 84.7459 360.751 86.5701 367.142 86.6807C373.532 86.7913 379.836 85.1843 385.397 82.0269C390.957 78.8695 395.572 74.277 398.761 68.7271C401.949 63.1772 403.596 56.8726 403.528 50.4693C403.461 44.0659 401.682 37.7976 398.377 32.3165Z" fill="black"/>
<path d="M346.847 8.02942C346.625 8.02974 346.405 8.06978 346.197 8.14766C345.891 8.2592 345.621 8.4503 345.413 8.70135C345.205 8.95239 345.068 9.25431 345.015 9.57608L342.544 24.1403C342.49 24.4614 342.521 24.7911 342.634 25.0965C342.747 25.4018 342.938 25.6719 343.188 25.8797C343.439 26.0875 343.739 26.2256 344.06 26.2801C344.38 26.3347 344.709 26.3038 345.014 26.1905L358.838 21.0523C359.143 20.9391 359.413 20.7474 359.62 20.4967C359.827 20.246 359.965 19.9451 360.02 19.6241C360.074 19.3031 360.043 18.9733 359.93 18.6681C359.817 18.3628 359.626 18.0927 359.376 17.8849L348.022 8.45862C347.693 8.18211 347.277 8.03022 346.847 8.02942Z" fill="white"/>
<path d="M389.909 8.02942C389.479 8.03022 389.064 8.18211 388.734 8.45862L377.38 17.8849C377.13 18.0927 376.939 18.3628 376.826 18.6681C376.713 18.9733 376.682 19.3031 376.737 19.6241C376.791 19.9451 376.929 20.246 377.136 20.4967C377.344 20.7474 377.613 20.9391 377.918 21.0523L391.743 26.1905C392.047 26.3038 392.376 26.3347 392.697 26.2801C393.017 26.2256 393.318 26.0875 393.568 25.8797C393.818 25.6719 394.01 25.4018 394.123 25.0965C394.236 24.7911 394.267 24.4614 394.212 24.1403L391.741 9.57608C391.688 9.25431 391.551 8.95239 391.344 8.70135C391.136 8.4503 390.865 8.25919 390.559 8.14766C390.351 8.06978 390.131 8.02974 389.909 8.02942Z" fill="white"/>
<path d="M367.754 60.8601C370.511 60.8601 372.746 58.6209 372.746 55.8587C372.746 53.0965 370.511 50.8573 367.754 50.8573C364.997 50.8573 362.762 53.0965 362.762 55.8587C362.762 58.6209 364.997 60.8601 367.754 60.8601Z" fill="white"/>
<path d="M367.754 54.6084C369.592 54.6084 371.082 54.0486 371.082 53.358C371.082 52.6675 369.592 52.1077 367.754 52.1077C365.916 52.1077 364.426 52.6675 364.426 53.358C364.426 54.0486 365.916 54.6084 367.754 54.6084Z" fill="black"/>
<path d="M365.258 58.7762H369.834V64.4028C369.834 64.7038 369.775 65.0019 369.66 65.28C369.545 65.5582 369.377 65.8109 369.164 66.0237C368.952 66.2366 368.699 66.4054 368.422 66.5206C368.144 66.6358 367.847 66.6951 367.546 66.6951C366.939 66.6951 366.358 66.4536 365.928 66.0237C365.499 65.5938 365.258 65.0108 365.258 64.4028L365.258 58.7762Z" fill="#FF6584"/>
<path d="M368.032 2.04642C367.792 2.54496 367.559 3.0489 367.34 3.56314C364.758 9.59554 363.888 16.2246 364.824 22.7208C365.292 22.0399 365.785 21.3306 366.285 20.6134C365.213 14.3788 365.816 7.97052 368.032 2.04642Z" fill="black"/>
<path d="M371.776 6.63104C371.536 7.12959 371.303 7.63353 371.084 8.14777C368.502 14.1802 367.631 20.8092 368.568 27.3054C369.036 26.6246 369.528 25.9152 370.029 25.1981C368.957 18.9634 369.56 12.5551 371.776 6.63104Z" fill="black"/>
<path d="M383.319 96.6366L382.791 89.9164L382.264 83.1962C382.235 82.8334 382.112 82.4844 381.906 82.1845C381.701 81.8845 381.42 81.6441 381.092 81.4873C380.764 81.3306 380.401 81.2632 380.039 81.2917C379.676 81.3202 379.328 81.4438 379.029 81.6499L373.484 85.4676L369.434 88.2554C369.176 87.9519 368.854 87.7081 368.492 87.541C368.13 87.3738 367.737 87.2873 367.338 87.2873C366.94 87.2873 366.546 87.3738 366.184 87.541C365.822 87.7081 365.501 87.9519 365.242 88.2554L361.193 85.4676L355.648 81.6499C355.348 81.4437 355 81.3202 354.638 81.2917C354.276 81.2631 353.912 81.3306 353.584 81.4873C353.257 81.644 352.976 81.8845 352.77 82.1844C352.564 82.4844 352.441 82.8333 352.412 83.1962L351.885 89.9164L351.357 96.6366C351.329 96.9994 351.396 97.3634 351.553 97.6919C351.709 98.0204 351.949 98.3019 352.249 98.508C352.548 98.7141 352.896 98.8377 353.258 98.8662C353.621 98.8947 353.984 98.8272 354.312 98.6705L360.384 95.7681L365.374 93.3832C365.631 93.6438 365.936 93.8508 366.274 93.992C366.611 94.1333 366.973 94.206 367.338 94.206C367.704 94.206 368.065 94.1333 368.403 93.992C368.74 93.8508 369.046 93.6438 369.302 93.3832L374.292 95.7681L380.365 98.6705C380.692 98.8272 381.056 98.8947 381.418 98.8662C381.78 98.8377 382.128 98.7141 382.428 98.508C382.727 98.3019 382.967 98.0204 383.124 97.6919C383.28 97.3634 383.347 96.9995 383.319 96.6366Z" fill="#F86262"/>
<path d="M361.099 51.6909C361.788 51.6909 362.347 51.1311 362.347 50.4405C362.347 49.75 361.788 49.1902 361.099 49.1902C360.409 49.1902 359.851 49.75 359.851 50.4405C359.851 51.1311 360.409 51.6909 361.099 51.6909Z" fill="white"/>
<path d="M374.41 51.6909C375.099 51.6909 375.658 51.1311 375.658 50.4405C375.658 49.75 375.099 49.1902 374.41 49.1902C373.721 49.1902 373.162 49.75 373.162 50.4405C373.162 51.1311 373.721 51.6909 374.41 51.6909Z" fill="white"/>
<path d="M126.286 131.743C126.59 131.747 126.893 131.751 127.201 131.751C127.509 131.751 127.813 131.747 128.116 131.743C144.215 131.376 155.884 121.298 152.914 110.724L145.671 84.9294L143.841 78.4026L111.393 78.9569L109.421 85.342L101.659 110.474C98.3724 121.106 110.041 131.376 126.286 131.743Z" fill="black"/>
<path opacity="0.2" d="M109.421 85.342C114.954 88.5106 121.23 90.1428 127.602 90.0702C133.975 89.9977 140.212 88.2231 145.671 84.9294L143.841 78.4026L111.393 78.9569L109.421 85.342Z" fill="black"/>
<path d="M106.85 108.523C103.348 104.393 95.9592 99.5442 80.3942 96.8551C53.2476 92.1634 60.3114 75.6402 60.6247 74.9396C61.2822 73.4701 60.6173 72.4856 59.1254 72.7491C58.2857 72.9593 57.5006 73.3469 56.8227 73.8859C56.1447 74.425 55.5896 75.103 55.1946 75.8746C54.7935 76.7338 45.7313 96.9651 76.3628 102.257C103.931 107.022 104.03 118.621 104.022 118.736C103.949 120.017 105.222 120.409 106.869 119.615C108.516 118.82 109.913 117.138 109.988 115.858C110.004 115.587 110.111 112.367 106.85 108.523Z" fill="black"/>
<path d="M142.177 135.502C142.669 135.502 143.156 135.405 143.61 135.217C144.064 135.028 144.477 134.752 144.824 134.403C145.172 134.055 145.448 133.642 145.636 133.187C145.824 132.731 145.921 132.244 145.921 131.751V115.496C145.92 114.502 145.525 113.549 144.823 112.847C144.121 112.144 143.169 111.75 142.177 111.75C141.185 111.75 140.233 112.144 139.531 112.847C138.829 113.549 138.434 114.502 138.433 115.496V131.751C138.433 132.244 138.53 132.731 138.718 133.187C138.906 133.642 139.182 134.055 139.53 134.403C139.877 134.752 140.29 135.028 140.744 135.217C141.199 135.405 141.685 135.502 142.177 135.502Z" fill="black"/>
<path d="M138.894 96.9129C139.1 97.3604 139.391 97.763 139.752 98.0977C140.113 98.4323 140.536 98.6925 140.997 98.8633C141.458 99.0342 141.948 99.1124 142.439 99.0934C142.931 99.0744 143.413 98.9587 143.86 98.7528L158.599 91.9588C159.046 91.7533 159.448 91.4614 159.783 91.1C160.118 90.7385 160.378 90.3146 160.549 89.8523C160.719 89.3901 160.798 88.8986 160.779 88.406C160.76 87.9135 160.645 87.4294 160.439 86.9816C160.233 86.5338 159.942 86.131 159.58 85.7962C159.219 85.4614 158.796 85.2013 158.334 85.0305C157.873 84.8598 157.382 84.7819 156.891 84.8013C156.399 84.8207 155.916 84.9369 155.469 85.1434L140.73 91.9374C140.284 92.1433 139.882 92.4353 139.548 92.7968C139.214 93.1582 138.954 93.5821 138.784 94.0441C138.613 94.5061 138.535 94.9973 138.554 95.4895C138.573 95.9817 138.689 96.4654 138.894 96.9129Z" fill="black"/>
<path d="M115.508 96.9129C115.302 97.3604 115.011 97.763 114.65 98.0977C114.289 98.4323 113.866 98.6925 113.405 98.8633C112.944 99.0342 112.454 99.1124 111.962 99.0934C111.471 99.0744 110.988 98.9587 110.542 98.7528L95.8028 91.9588C95.3556 91.7533 94.9533 91.4614 94.6187 91.1C94.2842 90.7385 94.0241 90.3146 93.8532 89.8523C93.6823 89.3901 93.604 88.8986 93.6229 88.406C93.6417 87.9135 93.7572 87.4294 93.9628 86.9816C94.1685 86.5338 94.4602 86.131 94.8213 85.7962C95.1824 85.4614 95.6059 85.2013 96.0674 85.0305C96.529 84.8598 97.0196 84.7819 97.5112 84.8013C98.0028 84.8207 98.4858 84.9369 98.9326 85.1434L113.671 91.9374C114.118 92.1433 114.52 92.4353 114.854 92.7968C115.188 93.1582 115.448 93.5821 115.618 94.0441C115.789 94.5061 115.867 94.9973 115.848 95.4895C115.829 95.9817 115.713 96.4654 115.508 96.9129Z" fill="black"/>
<path d="M112.225 135.502C111.733 135.502 111.246 135.405 110.792 135.217C110.338 135.028 109.925 134.752 109.578 134.403C109.23 134.055 108.954 133.642 108.766 133.187C108.578 132.731 108.481 132.244 108.481 131.751V115.496C108.482 114.502 108.877 113.549 109.579 112.847C110.281 112.144 111.233 111.75 112.225 111.75C113.217 111.75 114.169 112.144 114.871 112.847C115.573 113.549 115.968 114.502 115.969 115.496V131.751C115.969 132.244 115.872 132.731 115.684 133.187C115.496 133.642 115.22 134.055 114.872 134.403C114.525 134.752 114.112 135.028 113.658 135.217C113.203 135.405 112.717 135.502 112.225 135.502Z" fill="black"/>
<path d="M157.155 29.2214C157.371 28.6184 157.427 27.9697 157.318 27.3385L155.281 15.3286L153.243 3.31875C153.133 2.6703 152.855 2.06229 152.436 1.55583C152.017 1.04937 151.472 0.662308 150.857 0.433543C150.241 0.204778 149.576 0.142367 148.929 0.252594C148.282 0.362822 147.675 0.641803 147.17 1.06149L137.807 8.83443L132.374 13.3453C128.594 12.7891 124.749 12.8472 120.987 13.5173L115.347 8.83442L105.984 1.06147C105.479 0.641785 104.872 0.362806 104.225 0.252578C103.577 0.142349 102.913 0.204753 102.297 0.433518C101.682 0.662283 101.137 1.04935 100.718 1.55581C100.299 2.06227 100.021 2.67028 99.9107 3.31873L97.8731 15.3286L95.8354 27.3385C95.7455 27.852 95.7652 28.3788 95.8933 28.8841C96.0213 29.3894 96.2549 29.8618 96.5785 30.27C93.2692 35.7525 91.487 42.0233 91.4172 48.4299C91.3474 54.8365 92.9926 61.1448 96.1817 66.6982C99.3707 72.2517 103.987 76.8474 109.55 80.0071C115.113 83.1668 121.42 84.7749 127.814 84.6643C134.208 84.5536 140.455 82.7281 145.906 79.3777C151.357 76.0274 155.812 71.2747 158.808 65.6141C161.804 59.9536 163.23 53.5921 162.94 47.1918C162.649 40.7914 160.652 34.586 157.155 29.2214Z" fill="black"/>
<path d="M146.933 6.41221L135.579 15.8381C135.329 16.0459 135.138 16.3164 135.025 16.6217C134.912 16.9269 134.881 17.2566 134.935 17.5776C134.99 17.8986 135.128 18.1996 135.335 18.4503C135.542 18.701 135.812 18.8927 136.117 19.0059L149.941 24.1441C150.246 24.2573 150.575 24.2883 150.896 24.2337C151.216 24.1791 151.516 24.041 151.767 23.8333C152.017 23.6255 152.208 23.3554 152.321 23.05C152.434 22.7447 152.465 22.415 152.411 22.0939L149.94 7.52967C149.887 7.2079 149.75 6.90599 149.542 6.65495C149.335 6.4039 149.064 6.21279 148.758 6.10126C148.55 6.02338 148.33 5.98333 148.108 5.98302C147.678 5.98382 147.262 6.13571 146.933 6.41221Z" fill="white"/>
<path d="M104.396 6.10126C104.09 6.21279 103.819 6.4039 103.612 6.65494C103.404 6.90598 103.267 7.2079 103.214 7.52967L100.743 22.0939C100.689 22.415 100.719 22.7447 100.832 23.05C100.945 23.3554 101.137 23.6255 101.387 23.8333C101.637 24.041 101.938 24.1791 102.258 24.2337C102.579 24.2883 102.908 24.2573 103.213 24.1441L117.037 19.0059C117.342 18.8926 117.611 18.701 117.819 18.4503C118.026 18.1996 118.164 17.8986 118.218 17.5776C118.273 17.2566 118.242 16.9269 118.129 16.6217C118.016 16.3164 117.825 16.0463 117.575 15.8385L106.221 6.41221C105.892 6.13571 105.476 5.98382 105.046 5.98302C104.824 5.98333 104.604 6.02338 104.396 6.10126Z" fill="white"/>
<path d="M127.201 58.8137C129.958 58.8137 132.193 56.5745 132.193 53.8123C132.193 51.0501 129.958 48.8109 127.201 48.8109C124.444 48.8109 122.209 51.0501 122.209 53.8123C122.209 56.5745 124.444 58.8137 127.201 58.8137Z" fill="white"/>
<path d="M127.201 52.562C129.039 52.562 130.529 52.0022 130.529 51.3116C130.529 50.6211 129.039 50.0612 127.201 50.0612C125.363 50.0612 123.873 50.6211 123.873 51.3116C123.873 52.0022 125.363 52.562 127.201 52.562Z" fill="black"/>
<path d="M127.409 64.6487C127.108 64.6487 126.811 64.5894 126.533 64.4742C126.256 64.359 126.003 64.1902 125.791 63.9773C125.578 63.7644 125.41 63.5117 125.295 63.2336C125.18 62.9555 125.121 62.6574 125.121 62.3564V56.7298H129.697V62.3564C129.697 62.6574 129.638 62.9555 129.523 63.2336C129.408 63.5117 129.239 63.7644 129.027 63.9773C128.814 64.1902 128.562 64.359 128.284 64.4742C128.007 64.5894 127.709 64.6487 127.409 64.6487Z" fill="#FF6584"/>
<path d="M126.923 0C127.163 0.498543 127.396 1.00248 127.615 1.51672C130.197 7.54911 131.068 14.1781 130.132 20.6743C129.663 19.9935 129.171 19.2842 128.67 18.567C129.743 12.3324 129.14 5.9241 126.923 0Z" fill="black"/>
<path d="M123.179 4.58463C123.419 5.08317 123.652 5.5871 123.871 6.10134C126.453 12.1337 127.324 18.7628 126.387 25.259C125.919 24.5781 125.427 23.8688 124.926 23.1517C125.998 16.917 125.395 10.5087 123.179 4.58463Z" fill="black"/>
<path d="M111.636 21.6529L112.164 14.9327L112.691 8.21249C112.72 7.84964 112.843 7.50069 113.049 7.20072C113.254 6.90075 113.535 6.66032 113.863 6.5036C114.191 6.34689 114.554 6.27941 114.916 6.30794C115.279 6.33648 115.627 6.46002 115.926 6.66616L121.472 10.4839L125.521 13.2717C125.78 12.9681 126.101 12.7244 126.463 12.5572C126.825 12.3901 127.218 12.3035 127.617 12.3035C128.015 12.3035 128.409 12.3901 128.771 12.5572C129.133 12.7244 129.454 12.9681 129.713 13.2717L133.762 10.4839L139.308 6.66616C139.607 6.46002 139.955 6.33648 140.317 6.30794C140.68 6.27941 141.043 6.34689 141.371 6.5036C141.699 6.66032 141.98 6.90075 142.185 7.20072C142.391 7.50069 142.514 7.84964 142.543 8.21249L143.07 14.9327L143.598 21.6529C143.626 22.0157 143.559 22.3797 143.402 22.7082C143.246 23.0367 143.006 23.3181 142.707 23.5243C142.407 23.7304 142.059 23.8539 141.697 23.8825C141.335 23.911 140.971 23.8435 140.643 23.6868L134.571 20.7843L129.581 18.3995C129.325 18.6601 129.019 18.8671 128.681 19.0083C128.344 19.1496 127.982 19.2223 127.617 19.2223C127.251 19.2223 126.89 19.1496 126.552 19.0083C126.215 18.8671 125.909 18.6601 125.653 18.3995L120.663 20.7843L114.591 23.6868C114.263 23.8435 113.899 23.911 113.537 23.8825C113.175 23.854 112.827 23.7304 112.527 23.5243C112.228 23.3182 111.988 23.0367 111.832 22.7082C111.675 22.3797 111.608 22.0157 111.636 21.6529Z" fill="#F86262"/>
<path d="M132.609 48.3941C132.609 49.0847 133.168 48.3941 133.857 48.3941C134.546 48.3941 135.105 49.0847 135.105 48.3941C135.104 48.0629 134.972 47.7456 134.738 47.5117C134.504 47.2777 134.187 47.1464 133.857 47.1464C133.526 47.1464 133.209 47.2777 132.975 47.5117C132.741 47.7456 132.61 48.0629 132.609 48.3941Z" fill="white"/>
<path d="M121.793 48.3941C121.793 49.0847 121.234 48.3941 120.545 48.3941C119.856 48.3941 119.297 49.0847 119.297 48.3941C119.298 48.0629 119.429 47.7456 119.663 47.5117C119.897 47.2777 120.214 47.1464 120.545 47.1464C120.875 47.1464 121.192 47.2777 121.426 47.5117C121.66 47.7456 121.792 48.0629 121.793 48.3941Z" fill="white"/>
<path d="M181.28 86.3894C183.969 86.3894 186.149 84.2053 186.149 81.511C186.149 78.8168 183.969 76.6327 181.28 76.6327C178.591 76.6327 176.411 78.8168 176.411 81.511C176.411 84.2053 178.591 86.3894 181.28 86.3894Z" fill="white"/>
<path d="M61.1753 140.593C63.8644 140.593 66.0444 138.409 66.0444 135.715C66.0444 133.02 63.8644 130.836 61.1753 130.836C58.4861 130.836 56.3062 133.02 56.3062 135.715C56.3062 138.409 58.4861 140.593 61.1753 140.593Z" fill="white"/>
<path d="M157.475 242C160.164 242 162.344 239.816 162.344 237.122C162.344 234.427 160.164 232.243 157.475 232.243C154.786 232.243 152.606 234.427 152.606 237.122C152.606 239.816 154.786 242 157.475 242Z" fill="white"/>
<path d="M279.744 101.024C282.433 101.024 284.613 98.8402 284.613 96.146C284.613 93.4518 282.433 91.2677 279.744 91.2677C277.054 91.2677 274.875 93.4518 274.875 96.146C274.875 98.8402 277.054 101.024 279.744 101.024Z" fill="white"/>
<path d="M423.112 237.664C425.801 237.664 427.981 235.48 427.981 232.785C427.981 230.091 425.801 227.907 423.112 227.907C420.423 227.907 418.243 230.091 418.243 232.785C418.243 235.48 420.423 237.664 423.112 237.664Z" fill="white"/>
<path d="M427.981 116.743C430.67 116.743 432.85 114.559 432.85 111.865C432.85 109.171 430.67 106.987 427.981 106.987C425.292 106.987 423.112 109.171 423.112 111.865C423.112 114.559 425.292 116.743 427.981 116.743Z" fill="white"/>
<path d="M444.134 204.9C439.034 204.9 434.654 204.03 430.994 202.29C427.334 200.49 424.514 197.76 422.534 194.1C420.554 190.38 419.444 185.73 419.204 180.15C419.144 177.51 419.114 174.99 419.114 172.59C419.114 170.13 419.144 167.58 419.204 164.94C419.444 159.42 420.584 154.83 422.624 151.17C424.724 147.45 427.604 144.69 431.264 142.89C434.984 141.03 439.274 140.1 444.134 140.1C449.054 140.1 453.344 141.03 457.004 142.89C460.724 144.69 463.634 147.45 465.734 151.17C467.834 154.83 468.974 159.42 469.154 164.94C469.274 167.58 469.334 170.13 469.334 172.59C469.334 174.99 469.274 177.51 469.154 180.15C468.974 185.73 467.864 190.38 465.824 194.1C463.844 197.76 461.024 200.49 457.364 202.29C453.704 204.03 449.294 204.9 444.134 204.9ZM444.134 197.25C448.754 197.25 452.504 195.87 455.384 193.11C458.324 190.35 459.914 185.88 460.154 179.7C460.274 177 460.334 174.6 460.334 172.5C460.334 170.34 460.274 167.94 460.154 165.3C460.034 161.16 459.254 157.8 457.814 155.22C456.434 152.64 454.574 150.75 452.234 149.55C449.894 148.35 447.194 147.75 444.134 147.75C441.194 147.75 438.554 148.35 436.214 149.55C433.874 150.75 431.984 152.64 430.544 155.22C429.164 157.8 428.384 161.16 428.204 165.3C428.144 167.94 428.114 170.34 428.114 172.5C428.114 174.6 428.144 177 428.204 179.7C428.444 185.88 430.034 190.35 432.974 193.11C435.914 195.87 439.634 197.25 444.134 197.25Z" fill="white"/>
<path d="M367.863 204C367.203 204 366.693 203.82 366.333 203.46C365.973 203.04 365.793 202.53 365.793 201.93V143.16C365.793 142.5 365.973 141.99 366.333 141.63C366.693 141.21 367.203 141 367.863 141H388.293C394.473 141 399.453 141.93 403.233 143.79C407.013 145.65 409.773 148.41 411.513 152.07C413.253 155.67 414.153 160.11 414.213 165.39C414.273 168.09 414.303 170.46 414.303 172.5C414.303 174.54 414.273 176.88 414.213 179.52C414.093 185.04 413.163 189.63 411.423 193.29C409.743 196.89 407.043 199.59 403.323 201.39C399.663 203.13 394.803 204 388.743 204H367.863ZM374.613 196.35H388.293C392.433 196.35 395.733 195.78 398.193 194.64C400.653 193.5 402.423 191.67 403.503 189.15C404.643 186.63 405.243 183.3 405.303 179.16C405.423 177.36 405.483 175.8 405.483 174.48C405.483 173.1 405.483 171.75 405.483 170.43C405.483 169.05 405.423 167.49 405.303 165.75C405.183 159.93 403.803 155.64 401.163 152.88C398.523 150.06 394.083 148.65 387.843 148.65H374.613V196.35Z" fill="white"/>
<path d="M349.554 204C348.894 204 348.384 203.82 348.024 203.46C347.664 203.04 347.484 202.53 347.484 201.93V143.07C347.484 142.47 347.664 141.99 348.024 141.63C348.384 141.21 348.894 141 349.554 141H354.324C354.924 141 355.404 141.21 355.764 141.63C356.184 141.99 356.394 142.47 356.394 143.07V201.93C356.394 202.53 356.184 203.04 355.764 203.46C355.404 203.82 354.924 204 354.324 204H349.554Z" fill="white"/>
<path d="M293.364 204C292.704 204 292.194 203.82 291.834 203.46C291.474 203.04 291.294 202.53 291.294 201.93V143.16C291.294 142.5 291.474 141.99 291.834 141.63C292.194 141.21 292.704 141 293.364 141H297.504C298.224 141 298.764 141.18 299.124 141.54C299.484 141.84 299.694 142.08 299.754 142.26L329.634 188.16V143.16C329.634 142.5 329.814 141.99 330.174 141.63C330.534 141.21 331.044 141 331.704 141H336.024C336.684 141 337.194 141.21 337.554 141.63C337.974 141.99 338.184 142.5 338.184 143.16V201.84C338.184 202.44 337.974 202.95 337.554 203.37C337.194 203.79 336.714 204 336.114 204H331.794C331.134 204 330.624 203.82 330.264 203.46C329.964 203.1 329.754 202.86 329.634 202.74L299.844 157.29V201.93C299.844 202.53 299.634 203.04 299.214 203.46C298.854 203.82 298.344 204 297.684 204H293.364Z" fill="white"/>
<path d="M245.084 204C244.424 204 243.914 203.82 243.554 203.46C243.194 203.04 243.014 202.53 243.014 201.93V143.16C243.014 142.5 243.194 141.99 243.554 141.63C243.914 141.21 244.424 141 245.084 141H282.254C282.914 141 283.424 141.21 283.784 141.63C284.144 141.99 284.324 142.5 284.324 143.16V146.58C284.324 147.24 284.144 147.75 283.784 148.11C283.424 148.47 282.914 148.65 282.254 148.65H251.654V168.36H280.274C280.934 168.36 281.444 168.57 281.804 168.99C282.164 169.35 282.344 169.86 282.344 170.52V173.85C282.344 174.45 282.164 174.96 281.804 175.38C281.444 175.74 280.934 175.92 280.274 175.92H251.654V196.35H282.974C283.634 196.35 284.144 196.53 284.504 196.89C284.864 197.25 285.044 197.76 285.044 198.42V201.93C285.044 202.53 284.864 203.04 284.504 203.46C284.144 203.82 283.634 204 282.974 204H245.084Z" fill="white"/>
<path d="M209.147 204C208.247 204 207.527 203.79 206.987 203.37C206.507 202.95 206.117 202.38 205.817 201.66L185.747 143.79C185.627 143.43 185.567 143.1 185.567 142.8C185.567 142.32 185.747 141.9 186.107 141.54C186.467 141.18 186.887 141 187.367 141H192.047C192.767 141 193.307 141.21 193.667 141.63C194.087 141.99 194.327 142.32 194.387 142.62L212.027 193.65L229.667 142.62C229.787 142.32 230.027 141.99 230.387 141.63C230.747 141.21 231.287 141 232.007 141H236.687C237.167 141 237.587 141.18 237.947 141.54C238.367 141.9 238.577 142.32 238.577 142.8C238.577 143.1 238.517 143.43 238.397 143.79L218.237 201.66C217.997 202.38 217.607 202.95 217.067 203.37C216.587 203.79 215.897 204 214.997 204H209.147Z" fill="white"/>
<path d="M136.307 204C135.647 204 135.137 203.82 134.777 203.46C134.417 203.04 134.237 202.53 134.237 201.93V143.16C134.237 142.5 134.417 141.99 134.777 141.63C135.137 141.21 135.647 141 136.307 141H140.447C141.167 141 141.707 141.18 142.067 141.54C142.427 141.84 142.637 142.08 142.697 142.26L172.577 188.16V143.16C172.577 142.5 172.757 141.99 173.117 141.63C173.477 141.21 173.987 141 174.647 141H178.967C179.627 141 180.137 141.21 180.497 141.63C180.917 141.99 181.127 142.5 181.127 143.16V201.84C181.127 202.44 180.917 202.95 180.497 203.37C180.137 203.79 179.657 204 179.057 204H174.737C174.077 204 173.567 203.82 173.207 203.46C172.907 203.1 172.697 202.86 172.577 202.74L142.787 157.29V201.93C142.787 202.53 142.577 203.04 142.157 203.46C141.797 203.82 141.287 204 140.627 204H136.307Z" fill="white"/>
<path d="M88.0265 204C87.3665 204 86.8565 203.82 86.4965 203.46C86.1365 203.04 85.9565 202.53 85.9565 201.93V143.16C85.9565 142.5 86.1365 141.99 86.4965 141.63C86.8565 141.21 87.3665 141 88.0265 141H125.197C125.857 141 126.367 141.21 126.727 141.63C127.087 141.99 127.267 142.5 127.267 143.16V146.58C127.267 147.24 127.087 147.75 126.727 148.11C126.367 148.47 125.857 148.65 125.197 148.65H94.5965V168.36H123.217C123.877 168.36 124.387 168.57 124.747 168.99C125.107 169.35 125.287 169.86 125.287 170.52V173.85C125.287 174.45 125.107 174.96 124.747 175.38C124.387 175.74 123.877 175.92 123.217 175.92H94.5965V196.35H125.917C126.577 196.35 127.087 196.53 127.447 196.89C127.807 197.25 127.987 197.76 127.987 198.42V201.93C127.987 202.53 127.807 203.04 127.447 203.46C127.087 203.82 126.577 204 125.917 204H88.0265Z" fill="white"/>
<path d="M69.7175 204C69.0575 204 68.5475 203.82 68.1875 203.46C67.8275 203.04 67.6475 202.53 67.6475 201.93V143.07C67.6475 142.47 67.8275 141.99 68.1875 141.63C68.5475 141.21 69.0575 141 69.7175 141H74.4875C75.0875 141 75.5675 141.21 75.9275 141.63C76.3475 141.99 76.5575 142.47 76.5575 143.07V201.93C76.5575 202.53 76.3475 203.04 75.9275 203.46C75.5675 203.82 75.0875 204 74.4875 204H69.7175Z" fill="white"/>
<path d="M15.9001 204C15.2401 204 14.7301 203.82 14.3701 203.46C14.0101 203.04 13.8301 202.53 13.8301 201.93V143.16C13.8301 142.5 14.0101 141.99 14.3701 141.63C14.7301 141.21 15.2401 141 15.9001 141H40.5601C45.0601 141 48.7201 141.75 51.5401 143.25C54.4201 144.69 56.5201 146.67 57.8401 149.19C59.2201 151.71 59.9101 154.53 59.9101 157.65C59.9101 160.11 59.4901 162.24 58.6501 164.04C57.8701 165.78 56.8801 167.22 55.6801 168.36C54.4801 169.44 53.3101 170.28 52.1701 170.88C54.5101 172.02 56.5801 173.88 58.3801 176.46C60.2401 179.04 61.1701 182.16 61.1701 185.82C61.1701 189.12 60.4201 192.15 58.9201 194.91C57.4201 197.67 55.1701 199.89 52.1701 201.57C49.2301 203.19 45.5701 204 41.1901 204H15.9001ZM22.6501 196.71H40.0201C43.9201 196.71 46.9201 195.66 49.0201 193.56C51.1201 191.46 52.1701 188.88 52.1701 185.82C52.1701 182.64 51.1201 180.03 49.0201 177.99C46.9201 175.89 43.9201 174.84 40.0201 174.84H22.6501V196.71ZM22.6501 167.64H39.2101C43.0501 167.64 45.9601 166.77 47.9401 165.03C49.9201 163.23 50.9101 160.8 50.9101 157.74C50.9101 154.68 49.9201 152.34 47.9401 150.72C45.9601 149.1 43.0501 148.29 39.2101 148.29H22.6501V167.64Z" fill="white"/>
</svg>
